name C:/MyDriveSym/Projects/mobilecap/Data\Session20210819_0001\mocap\ForceDataProcessed\DJAsym1_forces.mot
datacolumns 28
datarows 10
range 1.87450000 1.87900000
endheader 
time	R_ground_force_vx	R_ground_force_vy	R_ground_force_vz	R_ground_force_px	R_ground_force_py	R_ground_force_pz	R_ground_torque_x	R_ground_torque_y	R_ground_torque_z	L_ground_force_vx	L_ground_force_vy	L_ground_force_vz	L_ground_force_px	L_ground_force_py	L_ground_force_pz	L_ground_torque_x	L_ground_torque_y	L_ground_torque_z	3_ground_force_vx	3_ground_force_vy	3_ground_force_vz	3_ground_force_px	3_ground_force_py	3_ground_force_pz	3_ground_torque_x	3_ground_torque_y	3_ground_torque_z	
          1.87450000	        -30.20105300	        508.75938600	        -59.93381100	         -0.08855000	          0.00600000	         -0.44367800	          0.00000000	         -0.50970800	          0.00000000	        -47.49172900	        530.53601200	         60.23047400	         -0.01346600	          0.00600000	         -0.75189800	          0.00000000	         -0.14450300	          0.00000000	          0.00000000	          0.00000000	          0.00000000	          0.00000000	          0.00000000	          0.00000000	          0.00000000	          0.00000000	          0.00000000	
          1.87500000	        -30.48028500	        508.21711700	        -59.84015900	         -0.08850000	          0.00600000	         -0.44361900	          0.00000000	         -0.49413700	          0.00000000	        -47.70243800	        529.86481700	         60.04567000	         -0.01340000	          0.00600000	         -0.75191200	          0.00000000	         -0.14519800	          0.00000000	          0.00000000	          0.00000000	          0.00000000	          0.00000000	          0.00000000	          0.00000000	          0.00000000	          0.00000000	          0.00000000	
          1.87550000	        -30.75556400	        507.66063400	        -59.74380000	         -0.08844900	          0.00600000	         -0.44356000	          0.00000000	         -0.47875700	          0.00000000	        -47.91361000	        529.18572900	         59.86148600	         -0.01333400	          0.00600000	         -0.75192900	          0.00000000	         -0.14592300	          0.00000000	          0.00000000	          0.00000000	          0.00000000	          0.00000000	          0.00000000	          0.00000000	          0.00000000	          0.00000000	          0.00000000	
          1.87600000	        -31.02691700	        507.08922800	        -59.64468400	         -0.08839800	          0.00600000	         -0.44350000	          0.00000000	         -0.46354600	          0.00000000	        -48.12503600	        528.49837100	         59.67775600	         -0.01326800	          0.00600000	         -0.75194700	          0.00000000	         -0.14666000	          0.00000000	          0.00000000	          0.00000000	          0.00000000	          0.00000000	          0.00000000	          0.00000000	          0.00000000	          0.00000000	          0.00000000	
          1.87650000	        -31.29438900	        506.50220300	        -59.54275600	         -0.08834600	          0.00600000	         -0.44343900	          0.00000000	         -0.44848100	          0.00000000	        -48.33648600	        527.80235600	         59.49432100	         -0.01320100	          0.00600000	         -0.75196600	          0.00000000	         -0.14740000	          0.00000000	          0.00000000	          0.00000000	          0.00000000	          0.00000000	          0.00000000	          0.00000000	          0.00000000	          0.00000000	          0.00000000	
          1.87700000	        -31.55803000	        505.89890200	        -59.43796100	         -0.08829400	          0.00600000	         -0.44337800	          0.00000000	         -0.43353200	          0.00000000	        -48.54772800	        527.09727700	         59.31102300	         -0.01313400	          0.00600000	         -0.75198700	          0.00000000	         -0.14814200	          0.00000000	          0.00000000	          0.00000000	          0.00000000	          0.00000000	          0.00000000	          0.00000000	          0.00000000	          0.00000000	          0.00000000	
          1.87750000	        -31.81788300	        505.27872200	        -59.33026000	         -0.08824100	          0.00600000	         -0.44331600	          0.00000000	         -0.41866900	          0.00000000	        -48.75853600	        526.38270600	         59.12770700	         -0.01306700	          0.00600000	         -0.75200900	          0.00000000	         -0.14889600	          0.00000000	          0.00000000	          0.00000000	          0.00000000	          0.00000000	          0.00000000	          0.00000000	          0.00000000	          0.00000000	          0.00000000	
          1.87800000	        -32.07397700	        504.64111800	        -59.21963200	         -0.08818800	          0.00600000	         -0.44325300	          0.00000000	         -0.40385900	          0.00000000	        -48.96868800	        525.65821100	         58.94421100	         -0.01300000	          0.00600000	         -0.75203200	          0.00000000	         -0.14967300	          0.00000000	          0.00000000	          0.00000000	          0.00000000	          0.00000000	          0.00000000	          0.00000000	          0.00000000	          0.00000000	          0.00000000	
          1.87850000	        -32.32633100	        503.98558400	        -59.10607100	         -0.08813400	          0.00600000	         -0.44319000	          0.00000000	         -0.38907600	          0.00000000	        -49.17796100	        524.92336400	         58.76037600	         -0.01293200	          0.00600000	         -0.75205600	          0.00000000	         -0.15048500	          0.00000000	          0.00000000	          0.00000000	          0.00000000	          0.00000000	          0.00000000	          0.00000000	          0.00000000	          0.00000000	          0.00000000	
          1.87900000	        -32.57496700	        503.31163700	        -58.98958600	         -0.08807900	          0.00600000	         -0.44312600	          0.00000000	         -0.37429400	          0.00000000	        -49.38614100	        524.17773800	         58.57605500	         -0.01286300	          0.00600000	         -0.75208200	          0.00000000	         -0.15135000	          0.00000000	          0.00000000	          0.00000000	          0.00000000	          0.00000000	          0.00000000	          0.00000000	          0.00000000	          0.00000000	          0.00000000	
